<mxfile host="app.diagrams.net" modified="2023-07-30T15:59:56.492Z" agent="Mozilla/5.0 (Windows NT 10.0; Win64; x64) AppleWebKit/537.36 (KHTML, like Gecko) Chrome/114.0.0.0 Safari/537.36" etag="dFuoHO7kOKgGMUW1Tc_0" version="21.3.2" type="device">
  <diagram name="Side-1" id="Yi5KZk_WfLFtUitwRc3R">
    <mxGraphModel dx="1101" dy="1765" grid="1" gridSize="10" guides="1" tooltips="1" connect="1" arrows="1" fold="1" page="1" pageScale="1" pageWidth="827" pageHeight="1169" math="0" shadow="0">
      <root>
        <mxCell id="0" />
        <mxCell id="1" parent="0" />
        <mxCell id="ZmB0dp2YteYtgmMy9DGr-4" style="edgeStyle=orthogonalEdgeStyle;rounded=0;orthogonalLoop=1;jettySize=auto;html=1;endArrow=halfCircle;endFill=0;" edge="1" parent="1" source="ZmB0dp2YteYtgmMy9DGr-1">
          <mxGeometry relative="1" as="geometry">
            <mxPoint x="480" y="365" as="targetPoint" />
          </mxGeometry>
        </mxCell>
        <mxCell id="ZmB0dp2YteYtgmMy9DGr-11" style="edgeStyle=orthogonalEdgeStyle;rounded=0;orthogonalLoop=1;jettySize=auto;html=1;endArrow=halfCircle;endFill=0;" edge="1" parent="1" source="ZmB0dp2YteYtgmMy9DGr-1">
          <mxGeometry relative="1" as="geometry">
            <mxPoint x="380" y="410" as="targetPoint" />
          </mxGeometry>
        </mxCell>
        <mxCell id="ZmB0dp2YteYtgmMy9DGr-12" style="edgeStyle=orthogonalEdgeStyle;rounded=0;orthogonalLoop=1;jettySize=auto;html=1;endArrow=halfCircle;endFill=0;" edge="1" parent="1" source="ZmB0dp2YteYtgmMy9DGr-1">
          <mxGeometry relative="1" as="geometry">
            <mxPoint x="280" y="365" as="targetPoint" />
          </mxGeometry>
        </mxCell>
        <mxCell id="ZmB0dp2YteYtgmMy9DGr-15" style="edgeStyle=orthogonalEdgeStyle;rounded=0;orthogonalLoop=1;jettySize=auto;html=1;endArrow=halfCircle;endFill=0;" edge="1" parent="1" source="ZmB0dp2YteYtgmMy9DGr-1">
          <mxGeometry relative="1" as="geometry">
            <mxPoint x="380" y="280" as="targetPoint" />
          </mxGeometry>
        </mxCell>
        <mxCell id="ZmB0dp2YteYtgmMy9DGr-1" value="Core" style="shape=module;align=left;spacingLeft=20;align=center;verticalAlign=top;whiteSpace=wrap;html=1;fillColor=none;" vertex="1" parent="1">
          <mxGeometry x="330" y="340" width="100" height="50" as="geometry" />
        </mxCell>
        <mxCell id="ZmB0dp2YteYtgmMy9DGr-6" value="" style="edgeStyle=orthogonalEdgeStyle;rounded=0;orthogonalLoop=1;jettySize=auto;html=1;endArrow=oval;endFill=0;" edge="1" parent="1" source="ZmB0dp2YteYtgmMy9DGr-2">
          <mxGeometry relative="1" as="geometry">
            <mxPoint x="480" y="365" as="targetPoint" />
          </mxGeometry>
        </mxCell>
        <mxCell id="ZmB0dp2YteYtgmMy9DGr-2" value="spring.context" style="shape=module;align=left;spacingLeft=20;align=center;verticalAlign=top;whiteSpace=wrap;html=1;fillColor=none;" vertex="1" parent="1">
          <mxGeometry x="530" y="340" width="100" height="50" as="geometry" />
        </mxCell>
        <mxCell id="ZmB0dp2YteYtgmMy9DGr-10" style="edgeStyle=orthogonalEdgeStyle;rounded=0;orthogonalLoop=1;jettySize=auto;html=1;endArrow=oval;endFill=0;" edge="1" parent="1" source="ZmB0dp2YteYtgmMy9DGr-8">
          <mxGeometry relative="1" as="geometry">
            <mxPoint x="380" y="410" as="targetPoint" />
          </mxGeometry>
        </mxCell>
        <mxCell id="ZmB0dp2YteYtgmMy9DGr-8" value="java.desktop" style="shape=module;align=left;spacingLeft=20;align=center;verticalAlign=top;whiteSpace=wrap;html=1;fillColor=none;" vertex="1" parent="1">
          <mxGeometry x="330" y="430" width="100" height="50" as="geometry" />
        </mxCell>
        <mxCell id="ZmB0dp2YteYtgmMy9DGr-14" style="edgeStyle=orthogonalEdgeStyle;rounded=0;orthogonalLoop=1;jettySize=auto;html=1;endArrow=oval;endFill=0;" edge="1" parent="1" source="ZmB0dp2YteYtgmMy9DGr-13">
          <mxGeometry relative="1" as="geometry">
            <mxPoint x="280" y="365" as="targetPoint" />
          </mxGeometry>
        </mxCell>
        <mxCell id="ZmB0dp2YteYtgmMy9DGr-13" value="badlogic.gdx" style="shape=module;align=left;spacingLeft=20;align=center;verticalAlign=top;whiteSpace=wrap;html=1;fillColor=none;" vertex="1" parent="1">
          <mxGeometry x="130" y="340" width="100" height="50" as="geometry" />
        </mxCell>
        <mxCell id="ZmB0dp2YteYtgmMy9DGr-17" style="edgeStyle=orthogonalEdgeStyle;rounded=0;orthogonalLoop=1;jettySize=auto;html=1;endArrow=oval;endFill=0;" edge="1" parent="1" source="ZmB0dp2YteYtgmMy9DGr-16">
          <mxGeometry relative="1" as="geometry">
            <mxPoint x="380" y="280" as="targetPoint" />
          </mxGeometry>
        </mxCell>
        <mxCell id="ZmB0dp2YteYtgmMy9DGr-24" style="edgeStyle=orthogonalEdgeStyle;rounded=0;orthogonalLoop=1;jettySize=auto;html=1;endArrow=oval;endFill=0;" edge="1" parent="1" source="ZmB0dp2YteYtgmMy9DGr-16">
          <mxGeometry relative="1" as="geometry">
            <mxPoint x="280" y="185" as="targetPoint" />
          </mxGeometry>
        </mxCell>
        <mxCell id="ZmB0dp2YteYtgmMy9DGr-25" style="edgeStyle=orthogonalEdgeStyle;rounded=0;orthogonalLoop=1;jettySize=auto;html=1;endArrow=oval;endFill=0;" edge="1" parent="1" source="ZmB0dp2YteYtgmMy9DGr-16">
          <mxGeometry relative="1" as="geometry">
            <mxPoint x="479.9999999999998" y="185" as="targetPoint" />
          </mxGeometry>
        </mxCell>
        <mxCell id="ZmB0dp2YteYtgmMy9DGr-16" value="Common" style="shape=module;align=left;spacingLeft=20;align=center;verticalAlign=top;whiteSpace=wrap;html=1;fillColor=none;" vertex="1" parent="1">
          <mxGeometry x="330" y="160" width="100" height="50" as="geometry" />
        </mxCell>
        <mxCell id="ZmB0dp2YteYtgmMy9DGr-29" style="edgeStyle=orthogonalEdgeStyle;rounded=0;orthogonalLoop=1;jettySize=auto;html=1;endArrow=halfCircle;endFill=0;" edge="1" parent="1" source="ZmB0dp2YteYtgmMy9DGr-18">
          <mxGeometry relative="1" as="geometry">
            <mxPoint x="280" y="180" as="targetPoint" />
          </mxGeometry>
        </mxCell>
        <mxCell id="ZmB0dp2YteYtgmMy9DGr-18" value="Asteroid" style="shape=module;align=left;spacingLeft=20;align=center;verticalAlign=top;whiteSpace=wrap;html=1;fillColor=none;" vertex="1" parent="1">
          <mxGeometry x="130" y="70" width="100" height="50" as="geometry" />
        </mxCell>
        <mxCell id="ZmB0dp2YteYtgmMy9DGr-31" style="edgeStyle=orthogonalEdgeStyle;rounded=0;orthogonalLoop=1;jettySize=auto;html=1;endArrow=halfCircle;endFill=0;" edge="1" parent="1" source="ZmB0dp2YteYtgmMy9DGr-19">
          <mxGeometry relative="1" as="geometry">
            <mxPoint x="270" y="185" as="targetPoint" />
          </mxGeometry>
        </mxCell>
        <mxCell id="ZmB0dp2YteYtgmMy9DGr-19" value="Bullet" style="shape=module;align=left;spacingLeft=20;align=center;verticalAlign=top;whiteSpace=wrap;html=1;fillColor=none;" vertex="1" parent="1">
          <mxGeometry x="130" y="160" width="100" height="50" as="geometry" />
        </mxCell>
        <mxCell id="ZmB0dp2YteYtgmMy9DGr-30" style="edgeStyle=orthogonalEdgeStyle;rounded=0;orthogonalLoop=1;jettySize=auto;html=1;endArrow=halfCircle;endFill=0;" edge="1" parent="1" source="ZmB0dp2YteYtgmMy9DGr-20">
          <mxGeometry relative="1" as="geometry">
            <mxPoint x="280" y="190" as="targetPoint" />
          </mxGeometry>
        </mxCell>
        <mxCell id="ZmB0dp2YteYtgmMy9DGr-20" value="Collision" style="shape=module;align=left;spacingLeft=20;align=center;verticalAlign=top;whiteSpace=wrap;html=1;fillColor=none;" vertex="1" parent="1">
          <mxGeometry x="130" y="250" width="100" height="50" as="geometry" />
        </mxCell>
        <mxCell id="ZmB0dp2YteYtgmMy9DGr-26" style="edgeStyle=orthogonalEdgeStyle;rounded=0;orthogonalLoop=1;jettySize=auto;html=1;endArrow=halfCircle;endFill=0;" edge="1" parent="1" source="ZmB0dp2YteYtgmMy9DGr-21">
          <mxGeometry relative="1" as="geometry">
            <mxPoint x="479.9999999999998" y="190" as="targetPoint" />
          </mxGeometry>
        </mxCell>
        <mxCell id="ZmB0dp2YteYtgmMy9DGr-21" value="Enemy" style="shape=module;align=left;spacingLeft=20;align=center;verticalAlign=top;whiteSpace=wrap;html=1;fillColor=none;" vertex="1" parent="1">
          <mxGeometry x="530" y="250" width="100" height="50" as="geometry" />
        </mxCell>
        <mxCell id="ZmB0dp2YteYtgmMy9DGr-28" style="edgeStyle=orthogonalEdgeStyle;rounded=0;orthogonalLoop=1;jettySize=auto;html=1;endArrow=halfCircle;endFill=0;" edge="1" parent="1" source="ZmB0dp2YteYtgmMy9DGr-22">
          <mxGeometry relative="1" as="geometry">
            <mxPoint x="489.9999999999998" y="185" as="targetPoint" />
          </mxGeometry>
        </mxCell>
        <mxCell id="ZmB0dp2YteYtgmMy9DGr-22" value="Player" style="shape=module;align=left;spacingLeft=20;align=center;verticalAlign=top;whiteSpace=wrap;html=1;fillColor=none;" vertex="1" parent="1">
          <mxGeometry x="530" y="160" width="100" height="50" as="geometry" />
        </mxCell>
        <mxCell id="ZmB0dp2YteYtgmMy9DGr-27" style="edgeStyle=orthogonalEdgeStyle;rounded=0;orthogonalLoop=1;jettySize=auto;html=1;endArrow=halfCircle;endFill=0;" edge="1" parent="1" source="ZmB0dp2YteYtgmMy9DGr-23">
          <mxGeometry relative="1" as="geometry">
            <mxPoint x="479.9999999999998" y="180" as="targetPoint" />
          </mxGeometry>
        </mxCell>
        <mxCell id="ZmB0dp2YteYtgmMy9DGr-23" value="Splitterator" style="shape=module;align=left;spacingLeft=20;align=center;verticalAlign=top;whiteSpace=wrap;html=1;fillColor=none;" vertex="1" parent="1">
          <mxGeometry x="530" y="70" width="100" height="50" as="geometry" />
        </mxCell>
        <mxCell id="ZmB0dp2YteYtgmMy9DGr-36" value="Core" style="shape=module;align=left;spacingLeft=20;align=center;verticalAlign=top;whiteSpace=wrap;html=1;backgroundOutline=0;fixDash=0;enumerate=0;comic=0;shadow=1;fillColor=none;" vertex="1" parent="1">
          <mxGeometry x="1010" y="450" width="155" height="70" as="geometry" />
        </mxCell>
        <mxCell id="ZmB0dp2YteYtgmMy9DGr-38" value="spring.context" style="shape=module;align=left;spacingLeft=20;align=center;verticalAlign=top;whiteSpace=wrap;html=1;backgroundOutline=0;fixDash=0;enumerate=0;comic=0;shadow=1;fillColor=none;" vertex="1" parent="1">
          <mxGeometry x="1350" y="450" width="150" height="70" as="geometry" />
        </mxCell>
        <mxCell id="ZmB0dp2YteYtgmMy9DGr-40" value="java.desktop" style="shape=module;align=left;spacingLeft=20;align=center;verticalAlign=top;whiteSpace=wrap;html=1;backgroundOutline=0;fixDash=0;enumerate=0;comic=0;shadow=1;fillColor=none;" vertex="1" parent="1">
          <mxGeometry x="1010" y="590" width="155" height="70" as="geometry" />
        </mxCell>
        <mxCell id="ZmB0dp2YteYtgmMy9DGr-42" value="badlogic.gdx" style="shape=module;align=left;spacingLeft=20;align=center;verticalAlign=top;whiteSpace=wrap;html=1;backgroundOutline=0;fixDash=0;enumerate=0;comic=0;shadow=1;fillColor=none;" vertex="1" parent="1">
          <mxGeometry x="700" y="450" width="150" height="70" as="geometry" />
        </mxCell>
        <mxCell id="ZmB0dp2YteYtgmMy9DGr-114" style="edgeStyle=orthogonalEdgeStyle;rounded=0;orthogonalLoop=1;jettySize=auto;html=1;endArrow=halfCircle;endFill=0;" edge="1" parent="1" source="ZmB0dp2YteYtgmMy9DGr-46">
          <mxGeometry relative="1" as="geometry">
            <mxPoint x="1210" y="350" as="targetPoint" />
            <Array as="points">
              <mxPoint x="1090" y="350" />
            </Array>
          </mxGeometry>
        </mxCell>
        <mxCell id="ZmB0dp2YteYtgmMy9DGr-46" value="Common" style="shape=module;align=left;spacingLeft=20;align=center;verticalAlign=top;whiteSpace=wrap;html=1;backgroundOutline=0;fixDash=0;enumerate=0;comic=0;shadow=1;fillColor=none;" vertex="1" parent="1">
          <mxGeometry x="1010" y="180" width="155" height="140" as="geometry" />
        </mxCell>
        <mxCell id="ZmB0dp2YteYtgmMy9DGr-93" style="rounded=0;orthogonalLoop=1;jettySize=auto;html=1;endArrow=oval;endFill=0;jumpStyle=sharp;orthogonal=0;exitX=1;exitY=1;exitDx=0;exitDy=0;" edge="1" parent="1" source="ZmB0dp2YteYtgmMy9DGr-48">
          <mxGeometry relative="1" as="geometry">
            <mxPoint x="980" y="310" as="targetPoint" />
          </mxGeometry>
        </mxCell>
        <mxCell id="ZmB0dp2YteYtgmMy9DGr-95" style="rounded=0;orthogonalLoop=1;jettySize=auto;html=1;endArrow=oval;endFill=0;jumpStyle=sharp;orthogonal=0;exitX=1;exitY=0.25;exitDx=0;exitDy=0;" edge="1" parent="1" source="ZmB0dp2YteYtgmMy9DGr-48">
          <mxGeometry relative="1" as="geometry">
            <mxPoint x="980" y="190" as="targetPoint" />
            <mxPoint x="850" y="84.99999999999977" as="sourcePoint" />
          </mxGeometry>
        </mxCell>
        <mxCell id="ZmB0dp2YteYtgmMy9DGr-100" style="rounded=0;orthogonalLoop=1;jettySize=auto;html=1;endArrow=oval;endFill=0;exitX=1;exitY=0.5;exitDx=0;exitDy=0;" edge="1" parent="1" source="ZmB0dp2YteYtgmMy9DGr-48">
          <mxGeometry relative="1" as="geometry">
            <mxPoint x="979.9999999999998" y="220" as="targetPoint" />
          </mxGeometry>
        </mxCell>
        <mxCell id="ZmB0dp2YteYtgmMy9DGr-102" style="rounded=0;orthogonalLoop=1;jettySize=auto;html=1;endArrow=oval;endFill=0;exitX=1;exitY=0.75;exitDx=0;exitDy=0;" edge="1" parent="1" source="ZmB0dp2YteYtgmMy9DGr-48">
          <mxGeometry relative="1" as="geometry">
            <mxPoint x="980" y="280" as="targetPoint" />
          </mxGeometry>
        </mxCell>
        <mxCell id="ZmB0dp2YteYtgmMy9DGr-48" value="Asteroid&lt;br&gt;IGamePlugin&lt;br&gt;EProcess,EConstruct&lt;br&gt;Factory" style="shape=module;align=left;spacingLeft=20;align=center;verticalAlign=top;whiteSpace=wrap;html=1;backgroundOutline=0;fixDash=0;enumerate=0;comic=0;shadow=1;fillColor=none;" vertex="1" parent="1">
          <mxGeometry x="700" y="50" width="150" height="70" as="geometry" />
        </mxCell>
        <mxCell id="ZmB0dp2YteYtgmMy9DGr-96" style="rounded=0;orthogonalLoop=1;jettySize=auto;html=1;endArrow=oval;endFill=0;jumpStyle=sharp;orthogonal=0;exitX=1;exitY=0.25;exitDx=0;exitDy=0;" edge="1" parent="1" source="ZmB0dp2YteYtgmMy9DGr-50">
          <mxGeometry relative="1" as="geometry">
            <mxPoint x="980" y="190" as="targetPoint" />
          </mxGeometry>
        </mxCell>
        <mxCell id="ZmB0dp2YteYtgmMy9DGr-98" style="rounded=0;orthogonalLoop=1;jettySize=auto;html=1;endArrow=oval;endFill=0;jumpStyle=sharp;orthogonal=0;exitX=1;exitY=0.75;exitDx=0;exitDy=0;" edge="1" parent="1" source="ZmB0dp2YteYtgmMy9DGr-50">
          <mxGeometry relative="1" as="geometry">
            <mxPoint x="979.9999999999998" y="310" as="targetPoint" />
          </mxGeometry>
        </mxCell>
        <mxCell id="ZmB0dp2YteYtgmMy9DGr-104" style="rounded=0;orthogonalLoop=1;jettySize=auto;html=1;endArrow=oval;endFill=0;exitX=1;exitY=0.5;exitDx=0;exitDy=0;" edge="1" parent="1" source="ZmB0dp2YteYtgmMy9DGr-50">
          <mxGeometry relative="1" as="geometry">
            <mxPoint x="979.9999999999998" y="280" as="targetPoint" />
          </mxGeometry>
        </mxCell>
        <mxCell id="ZmB0dp2YteYtgmMy9DGr-50" value="Bullet&lt;br&gt;BulletCreator, IGamePlugin,&amp;nbsp;&lt;br&gt;EProcess, EConstruct" style="shape=module;align=left;spacingLeft=20;align=center;verticalAlign=top;whiteSpace=wrap;html=1;backgroundOutline=0;fixDash=0;enumerate=0;comic=0;shadow=1;fillColor=none;" vertex="1" parent="1">
          <mxGeometry x="700" y="310" width="150" height="70" as="geometry" />
        </mxCell>
        <mxCell id="ZmB0dp2YteYtgmMy9DGr-111" style="rounded=0;orthogonalLoop=1;jettySize=auto;html=1;endArrow=oval;endFill=0;jumpStyle=sharp;" edge="1" parent="1" source="ZmB0dp2YteYtgmMy9DGr-52">
          <mxGeometry relative="1" as="geometry">
            <mxPoint x="1210" y="350" as="targetPoint" />
          </mxGeometry>
        </mxCell>
        <mxCell id="ZmB0dp2YteYtgmMy9DGr-52" value="Collision&lt;br&gt;EPostProcess" style="shape=module;align=left;spacingLeft=20;align=center;verticalAlign=top;whiteSpace=wrap;html=1;backgroundOutline=0;fixDash=0;enumerate=0;comic=0;shadow=1;fillColor=none;" vertex="1" parent="1">
          <mxGeometry x="1350" y="310" width="150" height="70" as="geometry" />
        </mxCell>
        <mxCell id="ZmB0dp2YteYtgmMy9DGr-92" style="rounded=0;orthogonalLoop=1;jettySize=auto;html=1;endArrow=oval;endFill=0;jumpStyle=sharp;orthogonal=0;exitX=1;exitY=1;exitDx=0;exitDy=0;" edge="1" parent="1" source="ZmB0dp2YteYtgmMy9DGr-54">
          <mxGeometry relative="1" as="geometry">
            <mxPoint x="980" y="310" as="targetPoint" />
          </mxGeometry>
        </mxCell>
        <mxCell id="ZmB0dp2YteYtgmMy9DGr-97" style="rounded=0;orthogonalLoop=1;jettySize=auto;html=1;endArrow=oval;endFill=0;noJump=0;comic=0;orthogonal=0;ignoreEdge=0;flowAnimation=0;strokeColor=#FFFFFF;fillColor=#f5f5f5;jumpStyle=sharp;exitX=1;exitY=0;exitDx=0;exitDy=0;" edge="1" parent="1" source="ZmB0dp2YteYtgmMy9DGr-54">
          <mxGeometry relative="1" as="geometry">
            <mxPoint x="980" y="190" as="targetPoint" />
          </mxGeometry>
        </mxCell>
        <mxCell id="ZmB0dp2YteYtgmMy9DGr-99" style="rounded=0;orthogonalLoop=1;jettySize=auto;html=1;endArrow=oval;endFill=0;exitX=1;exitY=0.25;exitDx=0;exitDy=0;" edge="1" parent="1" source="ZmB0dp2YteYtgmMy9DGr-54">
          <mxGeometry relative="1" as="geometry">
            <mxPoint x="979.9999999999998" y="220" as="targetPoint" />
          </mxGeometry>
        </mxCell>
        <mxCell id="ZmB0dp2YteYtgmMy9DGr-103" style="rounded=0;orthogonalLoop=1;jettySize=auto;html=1;endArrow=oval;endFill=0;exitX=1;exitY=0.75;exitDx=0;exitDy=0;" edge="1" parent="1" source="ZmB0dp2YteYtgmMy9DGr-54">
          <mxGeometry relative="1" as="geometry">
            <mxPoint x="979.9999999999998" y="280" as="targetPoint" />
          </mxGeometry>
        </mxCell>
        <mxCell id="ZmB0dp2YteYtgmMy9DGr-54" value="Enemy&lt;br&gt;Factory, Plugin,&amp;nbsp;&lt;br&gt;Construction, EProcess" style="shape=module;align=left;spacingLeft=20;align=center;verticalAlign=top;whiteSpace=wrap;html=1;backgroundOutline=0;fixDash=0;enumerate=0;comic=0;shadow=1;fillColor=none;" vertex="1" parent="1">
          <mxGeometry x="700" y="180" width="150" height="70" as="geometry" />
        </mxCell>
        <mxCell id="ZmB0dp2YteYtgmMy9DGr-109" style="rounded=0;orthogonalLoop=1;jettySize=auto;html=1;jumpStyle=sharp;endArrow=oval;endFill=0;" edge="1" parent="1" source="ZmB0dp2YteYtgmMy9DGr-56">
          <mxGeometry relative="1" as="geometry">
            <mxPoint x="1210" y="190" as="targetPoint" />
          </mxGeometry>
        </mxCell>
        <mxCell id="ZmB0dp2YteYtgmMy9DGr-112" style="rounded=0;orthogonalLoop=1;jettySize=auto;html=1;endArrow=oval;endFill=0;jumpStyle=sharp;" edge="1" parent="1" source="ZmB0dp2YteYtgmMy9DGr-56">
          <mxGeometry relative="1" as="geometry">
            <mxPoint x="1210" y="310" as="targetPoint" />
          </mxGeometry>
        </mxCell>
        <mxCell id="ZmB0dp2YteYtgmMy9DGr-116" style="rounded=0;orthogonalLoop=1;jettySize=auto;html=1;endArrow=oval;endFill=0;" edge="1" parent="1" source="ZmB0dp2YteYtgmMy9DGr-56">
          <mxGeometry relative="1" as="geometry">
            <mxPoint x="1210" y="280" as="targetPoint" />
          </mxGeometry>
        </mxCell>
        <mxCell id="ZmB0dp2YteYtgmMy9DGr-56" value="Player&lt;br&gt;IGamePlugin&lt;br&gt;E-Process&lt;br&gt;E-Construction" style="shape=module;align=left;spacingLeft=20;align=center;verticalAlign=top;whiteSpace=wrap;html=1;backgroundOutline=0;fixDash=0;enumerate=0;comic=0;shadow=1;fillColor=none;" vertex="1" parent="1">
          <mxGeometry x="1350" y="180" width="150" height="70" as="geometry" />
        </mxCell>
        <mxCell id="ZmB0dp2YteYtgmMy9DGr-110" style="rounded=0;orthogonalLoop=1;jettySize=auto;html=1;jumpStyle=sharp;endArrow=oval;endFill=0;" edge="1" parent="1" source="ZmB0dp2YteYtgmMy9DGr-58">
          <mxGeometry relative="1" as="geometry">
            <mxPoint x="1210" y="190" as="targetPoint" />
          </mxGeometry>
        </mxCell>
        <mxCell id="ZmB0dp2YteYtgmMy9DGr-113" style="rounded=0;orthogonalLoop=1;jettySize=auto;html=1;endArrow=oval;endFill=0;jumpStyle=sharp;" edge="1" parent="1" source="ZmB0dp2YteYtgmMy9DGr-58">
          <mxGeometry relative="1" as="geometry">
            <mxPoint x="1210" y="220" as="targetPoint" />
          </mxGeometry>
        </mxCell>
        <mxCell id="ZmB0dp2YteYtgmMy9DGr-58" value="Splitterator&lt;br&gt;E-Pre-Process&lt;br&gt;IGamePlugin" style="shape=module;align=left;spacingLeft=20;align=center;verticalAlign=top;whiteSpace=wrap;html=1;backgroundOutline=0;fixDash=0;enumerate=0;comic=0;shadow=1;fillColor=none;" vertex="1" parent="1">
          <mxGeometry x="1350" y="50" width="150" height="70" as="geometry" />
        </mxCell>
        <mxCell id="ZmB0dp2YteYtgmMy9DGr-59" value="Component Diagram" style="text;html=1;strokeColor=none;fillColor=none;align=center;verticalAlign=middle;whiteSpace=wrap;rounded=0;" vertex="1" parent="1">
          <mxGeometry x="350" y="50" width="60" height="30" as="geometry" />
        </mxCell>
        <mxCell id="ZmB0dp2YteYtgmMy9DGr-60" value="&lt;font style=&quot;font-size: 24px;&quot;&gt;JPMS Specific&lt;br&gt;&lt;strike&gt;Component&lt;/strike&gt; Module Diagram&lt;br&gt;&lt;/font&gt;" style="text;html=1;strokeColor=none;fillColor=none;align=center;verticalAlign=middle;whiteSpace=wrap;rounded=0;" vertex="1" parent="1">
          <mxGeometry x="910" y="-20" width="360" height="70" as="geometry" />
        </mxCell>
        <mxCell id="ZmB0dp2YteYtgmMy9DGr-66" value="" style="endArrow=halfCircle;html=1;rounded=0;endFill=0;" edge="1" parent="1">
          <mxGeometry width="50" height="50" relative="1" as="geometry">
            <mxPoint x="1000" y="60" as="sourcePoint" />
            <mxPoint x="1040" y="60" as="targetPoint" />
          </mxGeometry>
        </mxCell>
        <mxCell id="ZmB0dp2YteYtgmMy9DGr-68" value="Uses" style="edgeLabel;html=1;align=center;verticalAlign=middle;resizable=0;points=[];" vertex="1" connectable="0" parent="ZmB0dp2YteYtgmMy9DGr-66">
          <mxGeometry x="-0.5078" y="-2" relative="1" as="geometry">
            <mxPoint x="50" y="-2" as="offset" />
          </mxGeometry>
        </mxCell>
        <mxCell id="ZmB0dp2YteYtgmMy9DGr-67" value="" style="endArrow=oval;html=1;rounded=0;endFill=0;" edge="1" parent="1">
          <mxGeometry width="50" height="50" relative="1" as="geometry">
            <mxPoint x="1080" y="60" as="sourcePoint" />
            <mxPoint x="1110" y="60" as="targetPoint" />
          </mxGeometry>
        </mxCell>
        <mxCell id="ZmB0dp2YteYtgmMy9DGr-69" value="Provides" style="edgeLabel;html=1;align=center;verticalAlign=middle;resizable=0;points=[];" vertex="1" connectable="0" parent="ZmB0dp2YteYtgmMy9DGr-67">
          <mxGeometry x="0.2509" relative="1" as="geometry">
            <mxPoint x="41" as="offset" />
          </mxGeometry>
        </mxCell>
        <mxCell id="ZmB0dp2YteYtgmMy9DGr-70" value="" style="endArrow=halfCircle;html=1;rounded=0;endFill=0;exitX=1;exitY=0.066;exitDx=0;exitDy=0;exitPerimeter=0;" edge="1" parent="1" source="ZmB0dp2YteYtgmMy9DGr-46">
          <mxGeometry width="50" height="50" relative="1" as="geometry">
            <mxPoint x="1165" y="184.70999999999998" as="sourcePoint" />
            <mxPoint x="1210" y="190" as="targetPoint" />
            <Array as="points">
              <mxPoint x="1190" y="190" />
            </Array>
          </mxGeometry>
        </mxCell>
        <mxCell id="ZmB0dp2YteYtgmMy9DGr-71" value="IGamePluginService" style="edgeLabel;html=1;align=center;verticalAlign=middle;resizable=0;points=[];labelBackgroundColor=#000000;" vertex="1" connectable="0" parent="ZmB0dp2YteYtgmMy9DGr-70">
          <mxGeometry x="-0.5078" y="-2" relative="1" as="geometry">
            <mxPoint x="15" y="-17" as="offset" />
          </mxGeometry>
        </mxCell>
        <mxCell id="ZmB0dp2YteYtgmMy9DGr-72" value="" style="endArrow=halfCircle;html=1;rounded=0;endFill=0;" edge="1" parent="1">
          <mxGeometry width="50" height="50" relative="1" as="geometry">
            <mxPoint x="1165" y="310" as="sourcePoint" />
            <mxPoint x="1210" y="310" as="targetPoint" />
          </mxGeometry>
        </mxCell>
        <mxCell id="ZmB0dp2YteYtgmMy9DGr-73" value="IEntityPostProcessingService" style="edgeLabel;html=1;align=center;verticalAlign=middle;resizable=0;points=[];labelBackgroundColor=#000000;" vertex="1" connectable="0" parent="ZmB0dp2YteYtgmMy9DGr-72">
          <mxGeometry x="-0.5078" y="-2" relative="1" as="geometry">
            <mxPoint x="-6" y="53" as="offset" />
          </mxGeometry>
        </mxCell>
        <mxCell id="ZmB0dp2YteYtgmMy9DGr-74" value="" style="endArrow=halfCircle;html=1;rounded=0;endFill=0;exitX=0.999;exitY=0.706;exitDx=0;exitDy=0;exitPerimeter=0;" edge="1" parent="1" source="ZmB0dp2YteYtgmMy9DGr-46">
          <mxGeometry width="50" height="50" relative="1" as="geometry">
            <mxPoint x="1165" y="274.71" as="sourcePoint" />
            <mxPoint x="1210" y="280" as="targetPoint" />
          </mxGeometry>
        </mxCell>
        <mxCell id="ZmB0dp2YteYtgmMy9DGr-75" value="IEntityProcessingService" style="edgeLabel;html=1;align=center;verticalAlign=middle;resizable=0;points=[];labelBackgroundColor=#000000;" vertex="1" connectable="0" parent="ZmB0dp2YteYtgmMy9DGr-74">
          <mxGeometry x="-0.5078" y="-2" relative="1" as="geometry">
            <mxPoint x="-6" y="49" as="offset" />
          </mxGeometry>
        </mxCell>
        <mxCell id="ZmB0dp2YteYtgmMy9DGr-115" value="IEntityConstructionService" style="edgeLabel;html=1;align=center;verticalAlign=middle;resizable=0;points=[];labelBackgroundColor=#000000;" vertex="1" connectable="0" parent="ZmB0dp2YteYtgmMy9DGr-74">
          <mxGeometry x="-0.5078" y="-2" relative="1" as="geometry">
            <mxPoint x="4" y="-21" as="offset" />
          </mxGeometry>
        </mxCell>
        <mxCell id="ZmB0dp2YteYtgmMy9DGr-76" value="" style="endArrow=halfCircle;html=1;rounded=0;endFill=0;" edge="1" parent="1">
          <mxGeometry width="50" height="50" relative="1" as="geometry">
            <mxPoint x="1165" y="220" as="sourcePoint" />
            <mxPoint x="1210" y="220" as="targetPoint" />
          </mxGeometry>
        </mxCell>
        <mxCell id="ZmB0dp2YteYtgmMy9DGr-77" value="IEntityPreProcessingService" style="edgeLabel;html=1;align=center;verticalAlign=middle;resizable=0;points=[];labelBackgroundColor=#000000;" vertex="1" connectable="0" parent="ZmB0dp2YteYtgmMy9DGr-76">
          <mxGeometry x="-0.5078" y="-2" relative="1" as="geometry">
            <mxPoint x="4" y="18" as="offset" />
          </mxGeometry>
        </mxCell>
        <mxCell id="ZmB0dp2YteYtgmMy9DGr-78" value="" style="endArrow=halfCircle;html=1;rounded=0;endFill=0;exitX=0.068;exitY=0.072;exitDx=0;exitDy=0;exitPerimeter=0;" edge="1" parent="1" source="ZmB0dp2YteYtgmMy9DGr-46">
          <mxGeometry width="50" height="50" relative="1" as="geometry">
            <mxPoint x="950" y="184.65999999999997" as="sourcePoint" />
            <mxPoint x="980" y="190" as="targetPoint" />
            <Array as="points">
              <mxPoint x="1000" y="190" />
            </Array>
          </mxGeometry>
        </mxCell>
        <mxCell id="ZmB0dp2YteYtgmMy9DGr-79" value="IGamePluginService" style="edgeLabel;html=1;align=center;verticalAlign=middle;resizable=0;points=[];labelBackgroundColor=#000000;" vertex="1" connectable="0" parent="ZmB0dp2YteYtgmMy9DGr-78">
          <mxGeometry x="-0.5078" y="-2" relative="1" as="geometry">
            <mxPoint x="-11" y="-13" as="offset" />
          </mxGeometry>
        </mxCell>
        <mxCell id="ZmB0dp2YteYtgmMy9DGr-83" value="" style="endArrow=halfCircle;html=1;rounded=0;endFill=0;exitX=0.067;exitY=0.036;exitDx=0;exitDy=0;exitPerimeter=0;" edge="1" parent="1">
          <mxGeometry width="50" height="50" relative="1" as="geometry">
            <mxPoint x="1020" y="310" as="sourcePoint" />
            <mxPoint x="980" y="310" as="targetPoint" />
          </mxGeometry>
        </mxCell>
        <mxCell id="ZmB0dp2YteYtgmMy9DGr-84" value="IEntityProcessingService" style="edgeLabel;html=1;align=center;verticalAlign=middle;resizable=0;points=[];labelBackgroundColor=#000000;" vertex="1" connectable="0" parent="ZmB0dp2YteYtgmMy9DGr-83">
          <mxGeometry x="-0.5078" y="-2" relative="1" as="geometry">
            <mxPoint y="22" as="offset" />
          </mxGeometry>
        </mxCell>
        <mxCell id="ZmB0dp2YteYtgmMy9DGr-86" value="" style="endArrow=halfCircle;html=1;rounded=0;endFill=0;exitX=0.066;exitY=0.714;exitDx=0;exitDy=0;exitPerimeter=0;" edge="1" parent="1" source="ZmB0dp2YteYtgmMy9DGr-46">
          <mxGeometry width="50" height="50" relative="1" as="geometry">
            <mxPoint x="1020" y="274.65999999999997" as="sourcePoint" />
            <mxPoint x="980" y="280" as="targetPoint" />
            <Array as="points">
              <mxPoint x="1000" y="280" />
            </Array>
          </mxGeometry>
        </mxCell>
        <mxCell id="ZmB0dp2YteYtgmMy9DGr-87" value="IEntityConstructionService" style="edgeLabel;html=1;align=center;verticalAlign=middle;resizable=0;points=[];labelBackgroundColor=#000000;" vertex="1" connectable="0" parent="ZmB0dp2YteYtgmMy9DGr-86">
          <mxGeometry x="-0.5078" y="-2" relative="1" as="geometry">
            <mxPoint y="-18" as="offset" />
          </mxGeometry>
        </mxCell>
        <mxCell id="ZmB0dp2YteYtgmMy9DGr-88" value="" style="endArrow=halfCircle;html=1;rounded=0;endFill=0;exitX=0.067;exitY=0.036;exitDx=0;exitDy=0;exitPerimeter=0;" edge="1" parent="1">
          <mxGeometry width="50" height="50" relative="1" as="geometry">
            <mxPoint x="1020" y="219.99999999999997" as="sourcePoint" />
            <mxPoint x="980" y="219.99999999999997" as="targetPoint" />
          </mxGeometry>
        </mxCell>
        <mxCell id="ZmB0dp2YteYtgmMy9DGr-89" value="ITimeBasedEntityFactory" style="edgeLabel;html=1;align=center;verticalAlign=middle;resizable=0;points=[];labelBackgroundColor=#000000;" vertex="1" connectable="0" parent="ZmB0dp2YteYtgmMy9DGr-88">
          <mxGeometry x="-0.5078" y="-2" relative="1" as="geometry">
            <mxPoint y="12" as="offset" />
          </mxGeometry>
        </mxCell>
        <mxCell id="ZmB0dp2YteYtgmMy9DGr-105" value="" style="endArrow=halfCircle;html=1;rounded=0;endFill=0;" edge="1" parent="1">
          <mxGeometry width="50" height="50" relative="1" as="geometry">
            <mxPoint x="330" y="94.77" as="sourcePoint" />
            <mxPoint x="370" y="94.77" as="targetPoint" />
          </mxGeometry>
        </mxCell>
        <mxCell id="ZmB0dp2YteYtgmMy9DGr-106" value="Requires" style="edgeLabel;html=1;align=center;verticalAlign=middle;resizable=0;points=[];" vertex="1" connectable="0" parent="ZmB0dp2YteYtgmMy9DGr-105">
          <mxGeometry x="-0.5078" y="-2" relative="1" as="geometry">
            <mxPoint x="60" y="-2" as="offset" />
          </mxGeometry>
        </mxCell>
        <mxCell id="ZmB0dp2YteYtgmMy9DGr-107" value="" style="endArrow=oval;html=1;rounded=0;endFill=0;" edge="1" parent="1">
          <mxGeometry width="50" height="50" relative="1" as="geometry">
            <mxPoint x="340" y="120" as="sourcePoint" />
            <mxPoint x="370" y="120" as="targetPoint" />
          </mxGeometry>
        </mxCell>
        <mxCell id="ZmB0dp2YteYtgmMy9DGr-108" value="Provides" style="edgeLabel;html=1;align=center;verticalAlign=middle;resizable=0;points=[];" vertex="1" connectable="0" parent="ZmB0dp2YteYtgmMy9DGr-107">
          <mxGeometry x="0.2509" relative="1" as="geometry">
            <mxPoint x="41" as="offset" />
          </mxGeometry>
        </mxCell>
      </root>
    </mxGraphModel>
  </diagram>
</mxfile>
